<?xml version="1.0" encoding="UTF-8"?>
<svg xmlns="http://www.w3.org/2000/svg" width="287" height="71">
      <defs>
            <style type="text/css">
                  @namespace "http://www.w3.org/2000/svg";

                  .line {
                        fill: none;
                        stroke: #7F7F7F;
                        stroke-width: 1;
                  }

                  .bold-line {
                        stroke: #0A0A0A;
                        shape-rendering: crispEdges;
                        stroke-width: 2;
                  }

                  .thin-line {
                        stroke: #0F0F0F;
                        shape-rendering: crispEdges
                  }

                  .filled {
                        fill: #7F7F7F;
                        stroke: none;
                  }

                  text.terminal {
                        font-family: Verdana, Sans-serif;
                        font-size: 12px;
                        fill: #0A0A0A;
                        font-weight: bold;
                  }

                  text.nonterminal {
                        font-family: Verdana, Sans-serif;
                        font-size: 12px;
                        fill: #0D0D0D;
                        font-weight: normal;
                  }

                  text.regexp {
                        font-family: Verdana, Sans-serif;
                        font-size: 12px;
                        fill: #0F0F0F;
                        font-weight: normal;
                  }

                  rect,
                  circle,
                  polygon {
                        fill: #7F7F7F;
                        stroke: #7F7F7F;
                  }

                  rect.terminal {
                        fill: #FFFFFF;
                        stroke: #7F7F7F;
                        stroke-width: 1;
                  }

                  rect.nonterminal {
                        fill: #FFFFFF;
                        stroke: #7F7F7F;
                        stroke-width: 1;
                  }

                  rect.text {
                        fill: none;
                        stroke: none;
                  }

                  polygon.regexp {
                        fill: #FFFFFF;
                        stroke: #7F7F7F;
                        stroke-width: 1;
                  }
            </style>
      </defs>
      <polygon points="9 51 1 47 1 55" />
      <polygon points="17 51 9 47 9 55" />
      <rect x="31" y="37" width="28" height="32" rx="10" />
      <rect x="29" y="35" width="28" height="32" class="terminal" rx="10" />
      <text class="terminal" x="39" y="55">{</text>
      <a xmlns:xlink="http://www.w3.org/1999/xlink" xlink:href="#STATEMENT" xlink:title="STATEMENT">
            <rect x="99" y="3" width="92" height="32" />
            <rect x="97" y="1" width="92" height="32" class="nonterminal" />
            <text class="nonterminal" x="107" y="21">STATEMENT</text>
      </a>
      <rect x="231" y="37" width="28" height="32" rx="10" />
      <rect x="229" y="35" width="28" height="32" class="terminal" rx="10" />
      <text class="terminal" x="239" y="55">}</text>
      <path class="line"
            d="m17 51 h2 m0 0 h10 m28 0 h10 m20 0 h10 m0 0 h102 m-132 0 l20 0 m-1 0 q-9 0 -9 -10 l0 -14 q0 -10 10 -10 m112 34 l20 0 m-20 0 q10 0 10 -10 l0 -14 q0 -10 -10 -10 m-112 0 h10 m92 0 h10 m20 34 h10 m28 0 h10 m3 0 h-3" />
      <polygon points="277 51 285 47 285 55" />
      <polygon points="277 51 269 47 269 55" />
</svg>