<?xml version="1.0" encoding="UTF-8"?>
<svg xmlns="http://www.w3.org/2000/svg" width="411" height="81">
      <defs>
            <style type="text/css">
                  @namespace "http://www.w3.org/2000/svg";

                  .line {
                        fill: none;
                        stroke: #7F7F7F;
                        stroke-width: 1;
                  }

                  .bold-line {
                        stroke: #0A0A0A;
                        shape-rendering: crispEdges;
                        stroke-width: 2;
                  }

                  .thin-line {
                        stroke: #0F0F0F;
                        shape-rendering: crispEdges
                  }

                  .filled {
                        fill: #7F7F7F;
                        stroke: none;
                  }

                  text.terminal {
                        font-family: Verdana, Sans-serif;
                        font-size: 12px;
                        fill: #0A0A0A;
                        font-weight: bold;
                  }

                  text.nonterminal {
                        font-family: Verdana, Sans-serif;
                        font-size: 12px;
                        fill: #0D0D0D;
                        font-weight: normal;
                  }

                  text.regexp {
                        font-family: Verdana, Sans-serif;
                        font-size: 12px;
                        fill: #0F0F0F;
                        font-weight: normal;
                  }

                  rect,
                  circle,
                  polygon {
                        fill: #7F7F7F;
                        stroke: #7F7F7F;
                  }

                  rect.terminal {
                        fill: #FFFFFF;
                        stroke: #7F7F7F;
                        stroke-width: 1;
                  }

                  rect.nonterminal {
                        fill: #FFFFFF;
                        stroke: #7F7F7F;
                        stroke-width: 1;
                  }

                  rect.text {
                        fill: none;
                        stroke: none;
                  }

                  polygon.regexp {
                        fill: #FFFFFF;
                        stroke: #7F7F7F;
                        stroke-width: 1;
                  }
            </style>
      </defs>
      <polygon points="9 61 1 57 1 65" />
      <polygon points="17 61 9 57 9 65" />
      <a xmlns:xlink="http://www.w3.org/1999/xlink" xlink:href="#IDENTIFIER" xlink:title="IDENTIFIER">
            <rect x="51" y="47" width="92" height="32" />
            <rect x="49" y="45" width="92" height="32" class="nonterminal" />
            <text class="nonterminal" x="59" y="65">IDENTIFIER</text>
      </a>
      <rect x="51" y="3" width="24" height="32" rx="10" />
      <rect x="49" y="1" width="24" height="32" class="terminal" rx="10" />
      <text class="terminal" x="59" y="21">.</text>
      <rect x="183" y="47" width="26" height="32" rx="10" />
      <rect x="181" y="45" width="26" height="32" class="terminal" rx="10" />
      <text class="terminal" x="191" y="65">(</text>
      <a xmlns:xlink="http://www.w3.org/1999/xlink" xlink:href="#EXPRESSIONS" xlink:title="EXPRESSIONS">
            <rect x="229" y="47" width="108" height="32" />
            <rect x="227" y="45" width="108" height="32" class="nonterminal" />
            <text class="nonterminal" x="237" y="65">EXPRESSIONS</text>
      </a>
      <rect x="357" y="47" width="26" height="32" rx="10" />
      <rect x="355" y="45" width="26" height="32" class="terminal" rx="10" />
      <text class="terminal" x="365" y="65">)</text>
      <path class="line"
            d="m17 61 h2 m20 0 h10 m92 0 h10 m-132 0 l20 0 m-1 0 q-9 0 -9 -10 l0 -24 q0 -10 10 -10 m112 44 l20 0 m-20 0 q10 0 10 -10 l0 -24 q0 -10 -10 -10 m-112 0 h10 m24 0 h10 m0 0 h68 m20 44 h10 m26 0 h10 m0 0 h10 m108 0 h10 m0 0 h10 m26 0 h10 m3 0 h-3" />
      <polygon points="401 61 409 57 409 65" />
      <polygon points="401 61 393 57 393 65" />
</svg>