<?xml version="1.0" encoding="UTF-8"?>
<svg xmlns="http://www.w3.org/2000/svg" width="467" height="37">
      <defs>
            <style type="text/css">
                  @namespace "http://www.w3.org/2000/svg";

                  .line {
                        fill: none;
                        stroke: #7F7F7F;
                        stroke-width: 1;
                  }

                  .bold-line {
                        stroke: #0A0A0A;
                        shape-rendering: crispEdges;
                        stroke-width: 2;
                  }

                  .thin-line {
                        stroke: #0F0F0F;
                        shape-rendering: crispEdges
                  }

                  .filled {
                        fill: #7F7F7F;
                        stroke: none;
                  }

                  text.terminal {
                        font-family: Verdana, Sans-serif;
                        font-size: 12px;
                        fill: #0A0A0A;
                        font-weight: bold;
                  }

                  text.nonterminal {
                        font-family: Verdana, Sans-serif;
                        font-size: 12px;
                        fill: #0D0D0D;
                        font-weight: normal;
                  }

                  text.regexp {
                        font-family: Verdana, Sans-serif;
                        font-size: 12px;
                        fill: #0F0F0F;
                        font-weight: normal;
                  }

                  rect,
                  circle,
                  polygon {
                        fill: #7F7F7F;
                        stroke: #7F7F7F;
                  }

                  rect.terminal {
                        fill: #FFFFFF;
                        stroke: #7F7F7F;
                        stroke-width: 1;
                  }

                  rect.nonterminal {
                        fill: #FFFFFF;
                        stroke: #7F7F7F;
                        stroke-width: 1;
                  }

                  rect.text {
                        fill: none;
                        stroke: none;
                  }

                  polygon.regexp {
                        fill: #FFFFFF;
                        stroke: #7F7F7F;
                        stroke-width: 1;
                  }
            </style>
      </defs>
      <polygon points="9 17 1 13 1 21" />
      <polygon points="17 17 9 13 9 21" />
      <rect x="31" y="3" width="50" height="32" rx="10" />
      <rect x="29" y="1" width="50" height="32" class="terminal" rx="10" />
      <text class="terminal" x="39" y="21">case</text>
      <a xmlns:xlink="http://www.w3.org/1999/xlink" xlink:href="#VALUE" xlink:title="VALUE">
            <rect x="101" y="3" width="60" height="32" />
            <rect x="99" y="1" width="60" height="32" class="nonterminal" />
            <text class="nonterminal" x="109" y="21">VALUE</text>
      </a>
      <rect x="181" y="3" width="24" height="32" rx="10" />
      <rect x="179" y="1" width="24" height="32" class="terminal" rx="10" />
      <text class="terminal" x="189" y="21">:</text>
      <a xmlns:xlink="http://www.w3.org/1999/xlink" xlink:href="#STATEMENT" xlink:title="STATEMENT">
            <rect x="225" y="3" width="92" height="32" />
            <rect x="223" y="1" width="92" height="32" class="nonterminal" />
            <text class="nonterminal" x="233" y="21">STATEMENT</text>
      </a>
      <rect x="337" y="3" width="58" height="32" rx="10" />
      <rect x="335" y="1" width="58" height="32" class="terminal" rx="10" />
      <text class="terminal" x="345" y="21">break</text>
      <rect x="415" y="3" width="24" height="32" rx="10" />
      <rect x="413" y="1" width="24" height="32" class="terminal" rx="10" />
      <text class="terminal" x="423" y="21">;</text>
      <path class="line"
            d="m17 17 h2 m0 0 h10 m50 0 h10 m0 0 h10 m60 0 h10 m0 0 h10 m24 0 h10 m0 0 h10 m92 0 h10 m0 0 h10 m58 0 h10 m0 0 h10 m24 0 h10 m3 0 h-3" />
      <polygon points="457 17 465 13 465 21" />
      <polygon points="457 17 449 13 449 21" />
</svg>