<?xml version="1.0" encoding="UTF-8"?>
<svg xmlns="http://www.w3.org/2000/svg" width="457" height="81">
   <defs>
      <style type="text/css">
         @namespace "http://www.w3.org/2000/svg";

         .line {
            fill: none;
            stroke: #7F7F7F;
            stroke-width: 1;
         }

         .bold-line {
            stroke: #0A0A0A;
            shape-rendering: crispEdges;
            stroke-width: 2;
         }

         .thin-line {
            stroke: #0F0F0F;
            shape-rendering: crispEdges
         }

         .filled {
            fill: #7F7F7F;
            stroke: none;
         }

         text.terminal {
            font-family: Verdana, Sans-serif;
            font-size: 12px;
            fill: #0A0A0A;
            font-weight: bold;
         }

         text.nonterminal {
            font-family: Verdana, Sans-serif;
            font-size: 12px;
            fill: #0D0D0D;
            font-weight: normal;
         }

         text.regexp {
            font-family: Verdana, Sans-serif;
            font-size: 12px;
            fill: #0F0F0F;
            font-weight: normal;
         }

         rect,
         circle,
         polygon {
            fill: #7F7F7F;
            stroke: #7F7F7F;
         }

         rect.terminal {
            fill: #FFFFFF;
            stroke: #7F7F7F;
            stroke-width: 1;
         }

         rect.nonterminal {
            fill: #FFFFFF;
            stroke: #7F7F7F;
            stroke-width: 1;
         }

         rect.text {
            fill: none;
            stroke: none;
         }

         polygon.regexp {
            fill: #FFFFFF;
            stroke: #7F7F7F;
            stroke-width: 1;
         }
      </style>
   </defs>
   <polygon points="9 17 1 13 1 21" />
   <polygon points="17 17 9 13 9 21" />
   <a xmlns:xlink="http://www.w3.org/1999/xlink" xlink:href="#EXPRESSION" xlink:title="EXPRESSION">
      <rect x="51" y="3" width="100" height="32" />
      <rect x="49" y="1" width="100" height="32" class="nonterminal" />
      <text class="nonterminal" x="59" y="21">EXPRESSION</text>
   </a>
   <a xmlns:xlink="http://www.w3.org/1999/xlink" xlink:href="#REL_OPERATOR" xlink:title="REL_OPERATOR">
      <rect x="171" y="3" width="118" height="32" />
      <rect x="169" y="1" width="118" height="32" class="nonterminal" />
      <text class="nonterminal" x="179" y="21">REL_OPERATOR</text>
   </a>
   <a xmlns:xlink="http://www.w3.org/1999/xlink" xlink:href="#EXPRESSION" xlink:title="EXPRESSION">
      <rect x="309" y="3" width="100" height="32" />
      <rect x="307" y="1" width="100" height="32" class="nonterminal" />
      <text class="nonterminal" x="317" y="21">EXPRESSION</text>
   </a>
   <a xmlns:xlink="http://www.w3.org/1999/xlink" xlink:href="#BOOLEAN" xlink:title="BOOLEAN">
      <rect x="51" y="47" width="78" height="32" />
      <rect x="49" y="45" width="78" height="32" class="nonterminal" />
      <text class="nonterminal" x="59" y="65">BOOLEAN</text>
   </a>
   <path class="line"
      d="m17 17 h2 m20 0 h10 m100 0 h10 m0 0 h10 m118 0 h10 m0 0 h10 m100 0 h10 m-398 0 h20 m378 0 h20 m-418 0 q10 0 10 10 m398 0 q0 -10 10 -10 m-408 10 v24 m398 0 v-24 m-398 24 q0 10 10 10 m378 0 q10 0 10 -10 m-388 10 h10 m78 0 h10 m0 0 h280 m23 -44 h-3" />
   <polygon points="447 17 455 13 455 21" />
   <polygon points="447 17 439 13 439 21" />
</svg>