<?xml version="1.0" encoding="UTF-8"?>
<svg xmlns="http://www.w3.org/2000/svg" width="303" height="521">
      <defs>
            <style type="text/css">
                  @namespace "http://www.w3.org/2000/svg";

                  .line {
                        fill: none;
                        stroke: #7F7F7F;
                        stroke-width: 1;
                  }

                  .bold-line {
                        stroke: #0A0A0A;
                        shape-rendering: crispEdges;
                        stroke-width: 2;
                  }

                  .thin-line {
                        stroke: #0F0F0F;
                        shape-rendering: crispEdges
                  }

                  .filled {
                        fill: #7F7F7F;
                        stroke: none;
                  }

                  text.terminal {
                        font-family: Verdana, Sans-serif;
                        font-size: 12px;
                        fill: #0A0A0A;
                        font-weight: bold;
                  }

                  text.nonterminal {
                        font-family: Verdana, Sans-serif;
                        font-size: 12px;
                        fill: #0D0D0D;
                        font-weight: normal;
                  }

                  text.regexp {
                        font-family: Verdana, Sans-serif;
                        font-size: 12px;
                        fill: #0F0F0F;
                        font-weight: normal;
                  }

                  rect,
                  circle,
                  polygon {
                        fill: #7F7F7F;
                        stroke: #7F7F7F;
                  }

                  rect.terminal {
                        fill: #FFFFFF;
                        stroke: #7F7F7F;
                        stroke-width: 1;
                  }

                  rect.nonterminal {
                        fill: #FFFFFF;
                        stroke: #7F7F7F;
                        stroke-width: 1;
                  }

                  rect.text {
                        fill: none;
                        stroke: none;
                  }

                  polygon.regexp {
                        fill: #FFFFFF;
                        stroke: #7F7F7F;
                        stroke-width: 1;
                  }
            </style>
      </defs>
      <polygon points="9 17 1 13 1 21" />
      <polygon points="17 17 9 13 9 21" />
      <rect x="51" y="3" width="48" height="32" rx="10" />
      <rect x="49" y="1" width="48" height="32" class="terminal" rx="10" />
      <text class="terminal" x="59" y="21">void</text>
      <rect x="51" y="47" width="42" height="32" rx="10" />
      <rect x="49" y="45" width="42" height="32" class="terminal" rx="10" />
      <text class="terminal" x="59" y="65">var</text>
      <rect x="71" y="91" width="48" height="32" rx="10" />
      <rect x="69" y="89" width="48" height="32" class="terminal" rx="10" />
      <text class="terminal" x="79" y="109">bool</text>
      <rect x="71" y="135" width="50" height="32" rx="10" />
      <rect x="69" y="133" width="50" height="32" class="terminal" rx="10" />
      <text class="terminal" x="79" y="153">char</text>
      <rect x="71" y="179" width="54" height="32" rx="10" />
      <rect x="69" y="177" width="54" height="32" class="terminal" rx="10" />
      <text class="terminal" x="79" y="197">short</text>
      <rect x="71" y="223" width="38" height="32" rx="10" />
      <rect x="69" y="221" width="38" height="32" class="terminal" rx="10" />
      <text class="terminal" x="79" y="241">int</text>
      <rect x="71" y="267" width="48" height="32" rx="10" />
      <rect x="69" y="265" width="48" height="32" class="terminal" rx="10" />
      <text class="terminal" x="79" y="285">long</text>
      <rect x="71" y="311" width="50" height="32" rx="10" />
      <rect x="69" y="309" width="50" height="32" class="terminal" rx="10" />
      <text class="terminal" x="79" y="329">float</text>
      <rect x="71" y="355" width="66" height="32" rx="10" />
      <rect x="69" y="353" width="66" height="32" class="terminal" rx="10" />
      <text class="terminal" x="79" y="373">double</text>
      <rect x="71" y="399" width="72" height="32" rx="10" />
      <rect x="69" y="397" width="72" height="32" class="terminal" rx="10" />
      <text class="terminal" x="79" y="417">decimal</text>
      <rect x="71" y="443" width="60" height="32" rx="10" />
      <rect x="69" y="441" width="60" height="32" class="terminal" rx="10" />
      <text class="terminal" x="79" y="461">string</text>
      <rect x="71" y="487" width="60" height="32" rx="10" />
      <rect x="69" y="485" width="60" height="32" class="terminal" rx="10" />
      <text class="terminal" x="79" y="505">String</text>
      <rect x="203" y="123" width="32" height="32" rx="10" />
      <rect x="201" y="121" width="32" height="32" class="terminal" rx="10" />
      <text class="terminal" x="211" y="141">[]</text>
      <rect x="203" y="167" width="26" height="32" rx="10" />
      <rect x="201" y="165" width="26" height="32" class="terminal" rx="10" />
      <text class="terminal" x="211" y="185">?</text>
      <path class="line"
            d="m17 17 h2 m20 0 h10 m48 0 h10 m0 0 h156 m-244 0 h20 m224 0 h20 m-264 0 q10 0 10 10 m244 0 q0 -10 10 -10 m-254 10 v24 m244 0 v-24 m-244 24 q0 10 10 10 m224 0 q10 0 10 -10 m-234 10 h10 m42 0 h10 m0 0 h162 m-234 -10 v20 m244 0 v-20 m-244 20 v24 m244 0 v-24 m-244 24 q0 10 10 10 m224 0 q10 0 10 -10 m-214 10 h10 m48 0 h10 m0 0 h24 m-112 0 h20 m92 0 h20 m-132 0 q10 0 10 10 m112 0 q0 -10 10 -10 m-122 10 v24 m112 0 v-24 m-112 24 q0 10 10 10 m92 0 q10 0 10 -10 m-102 10 h10 m50 0 h10 m0 0 h22 m-102 -10 v20 m112 0 v-20 m-112 20 v24 m112 0 v-24 m-112 24 q0 10 10 10 m92 0 q10 0 10 -10 m-102 10 h10 m54 0 h10 m0 0 h18 m-102 -10 v20 m112 0 v-20 m-112 20 v24 m112 0 v-24 m-112 24 q0 10 10 10 m92 0 q10 0 10 -10 m-102 10 h10 m38 0 h10 m0 0 h34 m-102 -10 v20 m112 0 v-20 m-112 20 v24 m112 0 v-24 m-112 24 q0 10 10 10 m92 0 q10 0 10 -10 m-102 10 h10 m48 0 h10 m0 0 h24 m-102 -10 v20 m112 0 v-20 m-112 20 v24 m112 0 v-24 m-112 24 q0 10 10 10 m92 0 q10 0 10 -10 m-102 10 h10 m50 0 h10 m0 0 h22 m-102 -10 v20 m112 0 v-20 m-112 20 v24 m112 0 v-24 m-112 24 q0 10 10 10 m92 0 q10 0 10 -10 m-102 10 h10 m66 0 h10 m0 0 h6 m-102 -10 v20 m112 0 v-20 m-112 20 v24 m112 0 v-24 m-112 24 q0 10 10 10 m92 0 q10 0 10 -10 m-102 10 h10 m72 0 h10 m-102 -10 v20 m112 0 v-20 m-112 20 v24 m112 0 v-24 m-112 24 q0 10 10 10 m92 0 q10 0 10 -10 m-102 10 h10 m60 0 h10 m0 0 h12 m-102 -10 v20 m112 0 v-20 m-112 20 v24 m112 0 v-24 m-112 24 q0 10 10 10 m92 0 q10 0 10 -10 m-102 10 h10 m60 0 h10 m0 0 h12 m40 -396 h10 m0 0 h42 m-72 0 h20 m52 0 h20 m-92 0 q10 0 10 10 m72 0 q0 -10 10 -10 m-82 10 v12 m72 0 v-12 m-72 12 q0 10 10 10 m52 0 q10 0 10 -10 m-62 10 h10 m32 0 h10 m-62 -10 v20 m72 0 v-20 m-72 20 v24 m72 0 v-24 m-72 24 q0 10 10 10 m52 0 q10 0 10 -10 m-62 10 h10 m26 0 h10 m0 0 h6 m43 -164 h-3" />
      <polygon points="293 17 301 13 301 21" />
      <polygon points="293 17 285 13 285 21" />
</svg>