<?xml version="1.0" encoding="UTF-8"?>
<svg xmlns="http://www.w3.org/2000/svg" width="405" height="37">
      <defs>
            <style type="text/css">
                  @namespace "http://www.w3.org/2000/svg";

                  .line {
                        fill: none;
                        stroke: #7F7F7F;
                        stroke-width: 1;
                  }

                  .bold-line {
                        stroke: #0A0A0A;
                        shape-rendering: crispEdges;
                        stroke-width: 2;
                  }

                  .thin-line {
                        stroke: #0F0F0F;
                        shape-rendering: crispEdges
                  }

                  .filled {
                        fill: #7F7F7F;
                        stroke: none;
                  }

                  text.terminal {
                        font-family: Verdana, Sans-serif;
                        font-size: 12px;
                        fill: #0A0A0A;
                        font-weight: bold;
                  }

                  text.nonterminal {
                        font-family: Verdana, Sans-serif;
                        font-size: 12px;
                        fill: #0D0D0D;
                        font-weight: normal;
                  }

                  text.regexp {
                        font-family: Verdana, Sans-serif;
                        font-size: 12px;
                        fill: #0F0F0F;
                        font-weight: normal;
                  }

                  rect,
                  circle,
                  polygon {
                        fill: #7F7F7F;
                        stroke: #7F7F7F;
                  }

                  rect.terminal {
                        fill: #FFFFFF;
                        stroke: #7F7F7F;
                        stroke-width: 1;
                  }

                  rect.nonterminal {
                        fill: #FFFFFF;
                        stroke: #7F7F7F;
                        stroke-width: 1;
                  }

                  rect.text {
                        fill: none;
                        stroke: none;
                  }

                  polygon.regexp {
                        fill: #FFFFFF;
                        stroke: #7F7F7F;
                        stroke-width: 1;
                  }
            </style>
      </defs>
      <polygon points="9 17 1 13 1 21" />
      <polygon points="17 17 9 13 9 21" />
      <rect x="31" y="3" width="68" height="32" rx="10" />
      <rect x="29" y="1" width="68" height="32" class="terminal" rx="10" />
      <text class="terminal" x="39" y="21">default</text>
      <rect x="119" y="3" width="24" height="32" rx="10" />
      <rect x="117" y="1" width="24" height="32" class="terminal" rx="10" />
      <text class="terminal" x="127" y="21">:</text>
      <a xmlns:xlink="http://www.w3.org/1999/xlink" xlink:href="#STATEMENT" xlink:title="STATEMENT">
            <rect x="163" y="3" width="92" height="32" />
            <rect x="161" y="1" width="92" height="32" class="nonterminal" />
            <text class="nonterminal" x="171" y="21">STATEMENT</text>
      </a>
      <rect x="275" y="3" width="58" height="32" rx="10" />
      <rect x="273" y="1" width="58" height="32" class="terminal" rx="10" />
      <text class="terminal" x="283" y="21">break</text>
      <rect x="353" y="3" width="24" height="32" rx="10" />
      <rect x="351" y="1" width="24" height="32" class="terminal" rx="10" />
      <text class="terminal" x="361" y="21">;</text>
      <path class="line"
            d="m17 17 h2 m0 0 h10 m68 0 h10 m0 0 h10 m24 0 h10 m0 0 h10 m92 0 h10 m0 0 h10 m58 0 h10 m0 0 h10 m24 0 h10 m3 0 h-3" />
      <polygon points="395 17 403 13 403 21" />
      <polygon points="395 17 387 13 387 21" />
</svg>