<?xml version="1.0" encoding="UTF-8"?>
<svg xmlns="http://www.w3.org/2000/svg" width="291" height="125">
   <defs>
      <style type="text/css">
         @namespace "http://www.w3.org/2000/svg";

         .line {
            fill: none;
            stroke: #7F7F7F;
            stroke-width: 1;
         }

         .bold-line {
            stroke: #0A0A0A;
            shape-rendering: crispEdges;
            stroke-width: 2;
         }

         .thin-line {
            stroke: #0F0F0F;
            shape-rendering: crispEdges
         }

         .filled {
            fill: #7F7F7F;
            stroke: none;
         }

         text.terminal {
            font-family: Verdana, Sans-serif;
            font-size: 12px;
            fill: #0A0A0A;
            font-weight: bold;
         }

         text.nonterminal {
            font-family: Verdana, Sans-serif;
            font-size: 12px;
            fill: #0D0D0D;
            font-weight: normal;
         }

         text.regexp {
            font-family: Verdana, Sans-serif;
            font-size: 12px;
            fill: #0F0F0F;
            font-weight: normal;
         }

         rect,
         circle,
         polygon {
            fill: #7F7F7F;
            stroke: #7F7F7F;
         }

         rect.terminal {
            fill: #FFFFFF;
            stroke: #7F7F7F;
            stroke-width: 1;
         }

         rect.nonterminal {
            fill: #FFFFFF;
            stroke: #7F7F7F;
            stroke-width: 1;
         }

         rect.text {
            fill: none;
            stroke: none;
         }

         polygon.regexp {
            fill: #FFFFFF;
            stroke: #7F7F7F;
            stroke-width: 1;
         }
      </style>
   </defs>
   <polygon points="9 17 1 13 1 21" />
   <polygon points="17 17 9 13 9 21" />
   <a xmlns:xlink="http://www.w3.org/1999/xlink" xlink:href="#IDENTIFIER" xlink:title="IDENTIFIER">
      <rect x="51" y="3" width="92" height="32" />
      <rect x="49" y="1" width="92" height="32" class="nonterminal" />
      <text class="nonterminal" x="59" y="21">IDENTIFIER</text>
   </a>
   <a xmlns:xlink="http://www.w3.org/1999/xlink" xlink:href="#VALUE" xlink:title="VALUE">
      <rect x="51" y="47" width="60" height="32" />
      <rect x="49" y="45" width="60" height="32" class="nonterminal" />
      <text class="nonterminal" x="59" y="65">VALUE</text>
   </a>
   <rect x="51" y="91" width="26" height="32" rx="10" />
   <rect x="49" y="89" width="26" height="32" class="terminal" rx="10" />
   <text class="terminal" x="59" y="109">(</text>
   <a xmlns:xlink="http://www.w3.org/1999/xlink" xlink:href="#EXPRESSION" xlink:title="EXPRESSION">
      <rect x="97" y="91" width="100" height="32" />
      <rect x="95" y="89" width="100" height="32" class="nonterminal" />
      <text class="nonterminal" x="105" y="109">EXPRESSION</text>
   </a>
   <rect x="217" y="91" width="26" height="32" rx="10" />
   <rect x="215" y="89" width="26" height="32" class="terminal" rx="10" />
   <text class="terminal" x="225" y="109">)</text>
   <path class="line"
      d="m17 17 h2 m20 0 h10 m92 0 h10 m0 0 h100 m-232 0 h20 m212 0 h20 m-252 0 q10 0 10 10 m232 0 q0 -10 10 -10 m-242 10 v24 m232 0 v-24 m-232 24 q0 10 10 10 m212 0 q10 0 10 -10 m-222 10 h10 m60 0 h10 m0 0 h132 m-222 -10 v20 m232 0 v-20 m-232 20 v24 m232 0 v-24 m-232 24 q0 10 10 10 m212 0 q10 0 10 -10 m-222 10 h10 m26 0 h10 m0 0 h10 m100 0 h10 m0 0 h10 m26 0 h10 m23 -88 h-3" />
   <polygon points="281 17 289 13 289 21" />
   <polygon points="281 17 273 13 273 21" />
</svg>