<?xml version="1.0" encoding="UTF-8"?>
<svg xmlns="http://www.w3.org/2000/svg" width="825" height="37">
      <defs>
            <style type="text/css">
                  @namespace "http://www.w3.org/2000/svg";

                  .line {
                        fill: none;
                        stroke: #7F7F7F;
                        stroke-width: 1;
                  }

                  .bold-line {
                        stroke: #0A0A0A;
                        shape-rendering: crispEdges;
                        stroke-width: 2;
                  }

                  .thin-line {
                        stroke: #0F0F0F;
                        shape-rendering: crispEdges
                  }

                  .filled {
                        fill: #7F7F7F;
                        stroke: none;
                  }

                  text.terminal {
                        font-family: Verdana, Sans-serif;
                        font-size: 12px;
                        fill: #0A0A0A;
                        font-weight: bold;
                  }

                  text.nonterminal {
                        font-family: Verdana, Sans-serif;
                        font-size: 12px;
                        fill: #0D0D0D;
                        font-weight: normal;
                  }

                  text.regexp {
                        font-family: Verdana, Sans-serif;
                        font-size: 12px;
                        fill: #0F0F0F;
                        font-weight: normal;
                  }

                  rect,
                  circle,
                  polygon {
                        fill: #7F7F7F;
                        stroke: #7F7F7F;
                  }

                  rect.terminal {
                        fill: #FFFFFF;
                        stroke: #7F7F7F;
                        stroke-width: 1;
                  }

                  rect.nonterminal {
                        fill: #FFFFFF;
                        stroke: #7F7F7F;
                        stroke-width: 1;
                  }

                  rect.text {
                        fill: none;
                        stroke: none;
                  }

                  polygon.regexp {
                        fill: #FFFFFF;
                        stroke: #7F7F7F;
                        stroke-width: 1;
                  }
            </style>
      </defs>
      <polygon points="9 17 1 13 1 21" />
      <polygon points="17 17 9 13 9 21" />
      <rect x="31" y="3" width="38" height="32" rx="10" />
      <rect x="29" y="1" width="38" height="32" class="terminal" rx="10" />
      <text class="terminal" x="39" y="21">for</text>
      <rect x="89" y="3" width="26" height="32" rx="10" />
      <rect x="87" y="1" width="26" height="32" class="terminal" rx="10" />
      <text class="terminal" x="97" y="21">(</text>
      <a xmlns:xlink="http://www.w3.org/1999/xlink" xlink:href="#INLINE_STATEMENT" xlink:title="INLINE_STATEMENT">
            <rect x="135" y="3" width="142" height="32" />
            <rect x="133" y="1" width="142" height="32" class="nonterminal" />
            <text class="nonterminal" x="143" y="21">INLINE_STATEMENT</text>
      </a>
      <rect x="297" y="3" width="24" height="32" rx="10" />
      <rect x="295" y="1" width="24" height="32" class="terminal" rx="10" />
      <text class="terminal" x="305" y="21">;</text>
      <a xmlns:xlink="http://www.w3.org/1999/xlink" xlink:href="#CONDITION" xlink:title="CONDITION">
            <rect x="341" y="3" width="92" height="32" />
            <rect x="339" y="1" width="92" height="32" class="nonterminal" />
            <text class="nonterminal" x="349" y="21">CONDITION</text>
      </a>
      <rect x="453" y="3" width="24" height="32" rx="10" />
      <rect x="451" y="1" width="24" height="32" class="terminal" rx="10" />
      <text class="terminal" x="461" y="21">;</text>
      <a xmlns:xlink="http://www.w3.org/1999/xlink" xlink:href="#INLINE_STATEMENT" xlink:title="INLINE_STATEMENT">
            <rect x="497" y="3" width="142" height="32" />
            <rect x="495" y="1" width="142" height="32" class="nonterminal" />
            <text class="nonterminal" x="505" y="21">INLINE_STATEMENT</text>
      </a>
      <rect x="659" y="3" width="26" height="32" rx="10" />
      <rect x="657" y="1" width="26" height="32" class="terminal" rx="10" />
      <text class="terminal" x="667" y="21">)</text>
      <a xmlns:xlink="http://www.w3.org/1999/xlink" xlink:href="#STATEMENT" xlink:title="STATEMENT">
            <rect x="705" y="3" width="92" height="32" />
            <rect x="703" y="1" width="92" height="32" class="nonterminal" />
            <text class="nonterminal" x="713" y="21">STATEMENT</text>
      </a>
      <path class="line"
            d="m17 17 h2 m0 0 h10 m38 0 h10 m0 0 h10 m26 0 h10 m0 0 h10 m142 0 h10 m0 0 h10 m24 0 h10 m0 0 h10 m92 0 h10 m0 0 h10 m24 0 h10 m0 0 h10 m142 0 h10 m0 0 h10 m26 0 h10 m0 0 h10 m92 0 h10 m3 0 h-3" />
      <polygon points="815 17 823 13 823 21" />
      <polygon points="815 17 807 13 807 21" />
</svg>