<?xml version="1.0" encoding="UTF-8"?>
<svg xmlns="http://www.w3.org/2000/svg" width="859" height="97">
      <defs>
            <style type="text/css">
                  @namespace "http://www.w3.org/2000/svg";

                  .line {
                        fill: none;
                        stroke: #7F7F7F;
                        stroke-width: 1;
                  }

                  .bold-line {
                        stroke: #0A0A0A;
                        shape-rendering: crispEdges;
                        stroke-width: 2;
                  }

                  .thin-line {
                        stroke: #0F0F0F;
                        shape-rendering: crispEdges
                  }

                  .filled {
                        fill: #7F7F7F;
                        stroke: none;
                  }

                  text.terminal {
                        font-family: Verdana, Sans-serif;
                        font-size: 12px;
                        fill: #0A0A0A;
                        font-weight: bold;
                  }

                  text.nonterminal {
                        font-family: Verdana, Sans-serif;
                        font-size: 12px;
                        fill: #0D0D0D;
                        font-weight: normal;
                  }

                  text.regexp {
                        font-family: Verdana, Sans-serif;
                        font-size: 12px;
                        fill: #0F0F0F;
                        font-weight: normal;
                  }

                  rect,
                  circle,
                  polygon {
                        fill: #7F7F7F;
                        stroke: #7F7F7F;
                  }

                  rect.terminal {
                        fill: #FFFFFF;
                        stroke: #7F7F7F;
                        stroke-width: 1;
                  }

                  rect.nonterminal {
                        fill: #FFFFFF;
                        stroke: #7F7F7F;
                        stroke-width: 1;
                  }

                  rect.text {
                        fill: none;
                        stroke: none;
                  }

                  polygon.regexp {
                        fill: #FFFFFF;
                        stroke: #7F7F7F;
                        stroke-width: 1;
                  }
            </style>
      </defs>
      <polygon points="9 61 1 57 1 65" />
      <polygon points="17 61 9 57 9 65" />
      <a xmlns:xlink="http://www.w3.org/1999/xlink" xlink:href="#DATA_TYPE" xlink:title="DATA_TYPE">
            <rect x="31" y="47" width="90" height="32" />
            <rect x="29" y="45" width="90" height="32" class="nonterminal" />
            <text class="nonterminal" x="39" y="65">DATA_TYPE</text>
      </a>
      <a xmlns:xlink="http://www.w3.org/1999/xlink" xlink:href="#IDENTIFIER" xlink:title="IDENTIFIER">
            <rect x="141" y="47" width="92" height="32" />
            <rect x="139" y="45" width="92" height="32" class="nonterminal" />
            <text class="nonterminal" x="149" y="65">IDENTIFIER</text>
      </a>
      <rect x="253" y="47" width="26" height="32" rx="10" />
      <rect x="251" y="45" width="26" height="32" class="terminal" rx="10" />
      <text class="terminal" x="261" y="65">(</text>
      <a xmlns:xlink="http://www.w3.org/1999/xlink" xlink:href="#DECLARE_STATEMENT" xlink:title="DECLARE_STATEMENT">
            <rect x="339" y="47" width="158" height="32" />
            <rect x="337" y="45" width="158" height="32" class="nonterminal" />
            <text class="nonterminal" x="347" y="65">DECLARE_STATEMENT</text>
      </a>
      <rect x="339" y="3" width="24" height="32" rx="10" />
      <rect x="337" y="1" width="24" height="32" class="terminal" rx="10" />
      <text class="terminal" x="347" y="21">,</text>
      <rect x="557" y="47" width="26" height="32" rx="10" />
      <rect x="555" y="45" width="26" height="32" class="terminal" rx="10" />
      <text class="terminal" x="565" y="65">)</text>
      <rect x="603" y="47" width="28" height="32" rx="10" />
      <rect x="601" y="45" width="28" height="32" class="terminal" rx="10" />
      <text class="terminal" x="611" y="65">{</text>
      <a xmlns:xlink="http://www.w3.org/1999/xlink" xlink:href="#STATEMENT" xlink:title="STATEMENT">
            <rect x="671" y="13" width="92" height="32" />
            <rect x="669" y="11" width="92" height="32" class="nonterminal" />
            <text class="nonterminal" x="679" y="31">STATEMENT</text>
      </a>
      <rect x="803" y="47" width="28" height="32" rx="10" />
      <rect x="801" y="45" width="28" height="32" class="terminal" rx="10" />
      <text class="terminal" x="811" y="65">}</text>
      <path class="line"
            d="m17 61 h2 m0 0 h10 m90 0 h10 m0 0 h10 m92 0 h10 m0 0 h10 m26 0 h10 m40 0 h10 m158 0 h10 m-198 0 l20 0 m-1 0 q-9 0 -9 -10 l0 -24 q0 -10 10 -10 m178 44 l20 0 m-20 0 q10 0 10 -10 l0 -24 q0 -10 -10 -10 m-178 0 h10 m24 0 h10 m0 0 h134 m-218 44 h20 m218 0 h20 m-258 0 q10 0 10 10 m238 0 q0 -10 10 -10 m-248 10 v14 m238 0 v-14 m-238 14 q0 10 10 10 m218 0 q10 0 10 -10 m-228 10 h10 m0 0 h208 m20 -34 h10 m26 0 h10 m0 0 h10 m28 0 h10 m20 0 h10 m0 0 h102 m-132 0 l20 0 m-1 0 q-9 0 -9 -10 l0 -14 q0 -10 10 -10 m112 34 l20 0 m-20 0 q10 0 10 -10 l0 -14 q0 -10 -10 -10 m-112 0 h10 m92 0 h10 m20 34 h10 m28 0 h10 m3 0 h-3" />
      <polygon points="849 61 857 57 857 65" />
      <polygon points="849 61 841 57 841 65" />
</svg>