<?xml version="1.0" encoding="UTF-8"?>
<svg xmlns="http://www.w3.org/2000/svg" width="621" height="69">
      <defs>
            <style type="text/css">
                  @namespace "http://www.w3.org/2000/svg";

                  .line {
                        fill: none;
                        stroke: #7F7F7F;
                        stroke-width: 1;
                  }

                  .bold-line {
                        stroke: #0A0A0A;
                        shape-rendering: crispEdges;
                        stroke-width: 2;
                  }

                  .thin-line {
                        stroke: #0F0F0F;
                        shape-rendering: crispEdges
                  }

                  .filled {
                        fill: #7F7F7F;
                        stroke: none;
                  }

                  text.terminal {
                        font-family: Verdana, Sans-serif;
                        font-size: 12px;
                        fill: #0A0A0A;
                        font-weight: bold;
                  }

                  text.nonterminal {
                        font-family: Verdana, Sans-serif;
                        font-size: 12px;
                        fill: #0D0D0D;
                        font-weight: normal;
                  }

                  text.regexp {
                        font-family: Verdana, Sans-serif;
                        font-size: 12px;
                        fill: #0F0F0F;
                        font-weight: normal;
                  }

                  rect,
                  circle,
                  polygon {
                        fill: #7F7F7F;
                        stroke: #7F7F7F;
                  }

                  rect.terminal {
                        fill: #FFFFFF;
                        stroke: #7F7F7F;
                        stroke-width: 1;
                  }

                  rect.nonterminal {
                        fill: #FFFFFF;
                        stroke: #7F7F7F;
                        stroke-width: 1;
                  }

                  rect.text {
                        fill: none;
                        stroke: none;
                  }

                  polygon.regexp {
                        fill: #FFFFFF;
                        stroke: #7F7F7F;
                        stroke-width: 1;
                  }
            </style>
      </defs>
      <polygon points="9 17 1 13 1 21" />
      <polygon points="17 17 9 13 9 21" />
      <rect x="31" y="3" width="28" height="32" rx="10" />
      <rect x="29" y="1" width="28" height="32" class="terminal" rx="10" />
      <text class="terminal" x="39" y="21">if</text>
      <rect x="79" y="3" width="26" height="32" rx="10" />
      <rect x="77" y="1" width="26" height="32" class="terminal" rx="10" />
      <text class="terminal" x="87" y="21">(</text>
      <a xmlns:xlink="http://www.w3.org/1999/xlink" xlink:href="#CONDITION" xlink:title="CONDITION">
            <rect x="125" y="3" width="92" height="32" />
            <rect x="123" y="1" width="92" height="32" class="nonterminal" />
            <text class="nonterminal" x="133" y="21">CONDITION</text>
      </a>
      <rect x="237" y="3" width="26" height="32" rx="10" />
      <rect x="235" y="1" width="26" height="32" class="terminal" rx="10" />
      <text class="terminal" x="245" y="21">)</text>
      <a xmlns:xlink="http://www.w3.org/1999/xlink" xlink:href="#STATEMENT" xlink:title="STATEMENT">
            <rect x="283" y="3" width="92" height="32" />
            <rect x="281" y="1" width="92" height="32" class="nonterminal" />
            <text class="nonterminal" x="291" y="21">STATEMENT</text>
      </a>
      <rect x="415" y="35" width="46" height="32" rx="10" />
      <rect x="413" y="33" width="46" height="32" class="terminal" rx="10" />
      <text class="terminal" x="423" y="53">else</text>
      <a xmlns:xlink="http://www.w3.org/1999/xlink" xlink:href="#STATEMENT" xlink:title="STATEMENT">
            <rect x="481" y="35" width="92" height="32" />
            <rect x="479" y="33" width="92" height="32" class="nonterminal" />
            <text class="nonterminal" x="489" y="53">STATEMENT</text>
      </a>
      <path class="line"
            d="m17 17 h2 m0 0 h10 m28 0 h10 m0 0 h10 m26 0 h10 m0 0 h10 m92 0 h10 m0 0 h10 m26 0 h10 m0 0 h10 m92 0 h10 m20 0 h10 m0 0 h168 m-198 0 h20 m178 0 h20 m-218 0 q10 0 10 10 m198 0 q0 -10 10 -10 m-208 10 v12 m198 0 v-12 m-198 12 q0 10 10 10 m178 0 q10 0 10 -10 m-188 10 h10 m46 0 h10 m0 0 h10 m92 0 h10 m23 -32 h-3" />
      <polygon points="611 17 619 13 619 21" />
      <polygon points="611 17 603 13 603 21" />
</svg>