<?xml version="1.0" encoding="UTF-8"?>
<svg xmlns="http://www.w3.org/2000/svg" width="257" height="213">
   <defs>
      <style type="text/css">
         @namespace "http://www.w3.org/2000/svg";

         .line {
            fill: none;
            stroke: #7F7F7F;
            stroke-width: 1;
         }

         .bold-line {
            stroke: #0A0A0A;
            shape-rendering: crispEdges;
            stroke-width: 2;
         }

         .thin-line {
            stroke: #0F0F0F;
            shape-rendering: crispEdges
         }

         .filled {
            fill: #7F7F7F;
            stroke: none;
         }

         text.terminal {
            font-family: Verdana, Sans-serif;
            font-size: 12px;
            fill: #0A0A0A;
            font-weight: bold;
         }

         text.nonterminal {
            font-family: Verdana, Sans-serif;
            font-size: 12px;
            fill: #0D0D0D;
            font-weight: normal;
         }

         text.regexp {
            font-family: Verdana, Sans-serif;
            font-size: 12px;
            fill: #0F0F0F;
            font-weight: normal;
         }

         rect,
         circle,
         polygon {
            fill: #7F7F7F;
            stroke: #7F7F7F;
         }

         rect.terminal {
            fill: #FFFFFF;
            stroke: #7F7F7F;
            stroke-width: 1;
         }

         rect.nonterminal {
            fill: #FFFFFF;
            stroke: #7F7F7F;
            stroke-width: 1;
         }

         rect.text {
            fill: none;
            stroke: none;
         }

         polygon.regexp {
            fill: #FFFFFF;
            stroke: #7F7F7F;
            stroke-width: 1;
         }
      </style>
   </defs>
   <polygon points="9 17 1 13 1 21" />
   <polygon points="17 17 9 13 9 21" />
   <a xmlns:xlink="http://www.w3.org/1999/xlink" xlink:href="#DECLARE_STATEMENT" xlink:title="DECLARE_STATEMENT">
      <rect x="51" y="3" width="158" height="32" />
      <rect x="49" y="1" width="158" height="32" class="nonterminal" />
      <text class="nonterminal" x="59" y="21">DECLARE_STATEMENT</text>
   </a>
   <a xmlns:xlink="http://www.w3.org/1999/xlink" xlink:href="#ASSIGN_STATEMENT" xlink:title="ASSIGN_STATEMENT">
      <rect x="51" y="47" width="148" height="32" />
      <rect x="49" y="45" width="148" height="32" class="nonterminal" />
      <text class="nonterminal" x="59" y="65">ASSIGN_STATEMENT</text>
   </a>
   <a xmlns:xlink="http://www.w3.org/1999/xlink" xlink:href="#DECSIGN_STATEMENT" xlink:title="DECSIGN_STATEMENT">
      <rect x="51" y="91" width="158" height="32" />
      <rect x="49" y="89" width="158" height="32" class="nonterminal" />
      <text class="nonterminal" x="59" y="109">DECSIGN_STATEMENT</text>
   </a>
   <a xmlns:xlink="http://www.w3.org/1999/xlink" xlink:href="#INC_DEC_STATEMENT" xlink:title="INC_DEC_STATEMENT">
      <rect x="51" y="135" width="158" height="32" />
      <rect x="49" y="133" width="158" height="32" class="nonterminal" />
      <text class="nonterminal" x="59" y="153">INC_DEC_STATEMENT</text>
   </a>
   <a xmlns:xlink="http://www.w3.org/1999/xlink" xlink:href="#CALL_STATEMENT" xlink:title="CALL_STATEMENT">
      <rect x="51" y="179" width="132" height="32" />
      <rect x="49" y="177" width="132" height="32" class="nonterminal" />
      <text class="nonterminal" x="59" y="197">CALL_STATEMENT</text>
   </a>
   <path class="line"
      d="m17 17 h2 m20 0 h10 m158 0 h10 m-198 0 h20 m178 0 h20 m-218 0 q10 0 10 10 m198 0 q0 -10 10 -10 m-208 10 v24 m198 0 v-24 m-198 24 q0 10 10 10 m178 0 q10 0 10 -10 m-188 10 h10 m148 0 h10 m0 0 h10 m-188 -10 v20 m198 0 v-20 m-198 20 v24 m198 0 v-24 m-198 24 q0 10 10 10 m178 0 q10 0 10 -10 m-188 10 h10 m158 0 h10 m-188 -10 v20 m198 0 v-20 m-198 20 v24 m198 0 v-24 m-198 24 q0 10 10 10 m178 0 q10 0 10 -10 m-188 10 h10 m158 0 h10 m-188 -10 v20 m198 0 v-20 m-198 20 v24 m198 0 v-24 m-198 24 q0 10 10 10 m178 0 q10 0 10 -10 m-188 10 h10 m132 0 h10 m0 0 h26 m23 -176 h-3" />
   <polygon points="247 17 255 13 255 21" />
   <polygon points="247 17 239 13 239 21" />
</svg>