<?xml version="1.0" encoding="UTF-8"?>
<svg xmlns="http://www.w3.org/2000/svg" width="447" height="57">
   <defs>
      <style type="text/css">
         @namespace "http://www.w3.org/2000/svg";

         .line {
            fill: none;
            stroke: #7F7F7F;
            stroke-width: 1;
         }

         .bold-line {
            stroke: #0A0A0A;
            shape-rendering: crispEdges;
            stroke-width: 2;
         }

         .thin-line {
            stroke: #0F0F0F;
            shape-rendering: crispEdges
         }

         .filled {
            fill: #7F7F7F;
            stroke: none;
         }

         text.terminal {
            font-family: Verdana, Sans-serif;
            font-size: 12px;
            fill: #0A0A0A;
            font-weight: bold;
         }

         text.nonterminal {
            font-family: Verdana, Sans-serif;
            font-size: 12px;
            fill: #0D0D0D;
            font-weight: normal;
         }

         text.regexp {
            font-family: Verdana, Sans-serif;
            font-size: 12px;
            fill: #0F0F0F;
            font-weight: normal;
         }

         rect,
         circle,
         polygon {
            fill: #7F7F7F;
            stroke: #7F7F7F;
         }

         rect.terminal {
            fill: #FFFFFF;
            stroke: #7F7F7F;
            stroke-width: 1;
         }

         rect.nonterminal {
            fill: #FFFFFF;
            stroke: #7F7F7F;
            stroke-width: 1;
         }

         rect.text {
            fill: none;
            stroke: none;
         }

         polygon.regexp {
            fill: #FFFFFF;
            stroke: #7F7F7F;
            stroke-width: 1;
         }
      </style>
   </defs>
   <polygon points="9 51 1 47 1 55" />
   <polygon points="17 51 9 47 9 55" />
   <a xmlns:xlink="http://www.w3.org/1999/xlink" xlink:href="#IMPORT_STATEMENT" xlink:title="IMPORT_STATEMENT">
      <rect x="51" y="3" width="148" height="32" />
      <rect x="49" y="1" width="148" height="32" class="nonterminal" />
      <text class="nonterminal" x="59" y="21">IMPORT_STATEMENT</text>
   </a>
   <a xmlns:xlink="http://www.w3.org/1999/xlink" xlink:href="#CLASS_STATEMENT" xlink:title="CLASS_STATEMENT">
      <rect x="259" y="3" width="140" height="32" />
      <rect x="257" y="1" width="140" height="32" class="nonterminal" />
      <text class="nonterminal" x="267" y="21">CLASS_STATEMENT</text>
   </a>
   <path class="line"
      d="m17 51 h2 m20 0 h10 m0 0 h158 m-188 0 l20 0 m-1 0 q-9 0 -9 -10 l0 -14 q0 -10 10 -10 m168 34 l20 0 m-20 0 q10 0 10 -10 l0 -14 q0 -10 -10 -10 m-168 0 h10 m148 0 h10 m40 34 h10 m0 0 h150 m-180 0 l20 0 m-1 0 q-9 0 -9 -10 l0 -14 q0 -10 10 -10 m160 34 l20 0 m-20 0 q10 0 10 -10 l0 -14 q0 -10 -10 -10 m-160 0 h10 m140 0 h10 m23 34 h-3" />
   <polygon points="437 51 445 47 445 55" />
   <polygon points="437 51 429 47 429 55" />
</svg>