<?xml version="1.0" encoding="UTF-8"?>
<svg xmlns="http://www.w3.org/2000/svg" width="325" height="69">
      <defs>
            <style type="text/css">
                  @namespace "http://www.w3.org/2000/svg";

                  .line {
                        fill: none;
                        stroke: #7F7F7F;
                        stroke-width: 1;
                  }

                  .bold-line {
                        stroke: #0A0A0A;
                        shape-rendering: crispEdges;
                        stroke-width: 2;
                  }

                  .thin-line {
                        stroke: #0F0F0F;
                        shape-rendering: crispEdges
                  }

                  .filled {
                        fill: #7F7F7F;
                        stroke: none;
                  }

                  text.terminal {
                        font-family: Verdana, Sans-serif;
                        font-size: 12px;
                        fill: #0A0A0A;
                        font-weight: bold;
                  }

                  text.nonterminal {
                        font-family: Verdana, Sans-serif;
                        font-size: 12px;
                        fill: #0D0D0D;
                        font-weight: normal;
                  }

                  text.regexp {
                        font-family: Verdana, Sans-serif;
                        font-size: 12px;
                        fill: #0F0F0F;
                        font-weight: normal;
                  }

                  rect,
                  circle,
                  polygon {
                        fill: #7F7F7F;
                        stroke: #7F7F7F;
                  }

                  rect.terminal {
                        fill: #FFFFFF;
                        stroke: #7F7F7F;
                        stroke-width: 1;
                  }

                  rect.nonterminal {
                        fill: #FFFFFF;
                        stroke: #7F7F7F;
                        stroke-width: 1;
                  }

                  rect.text {
                        fill: none;
                        stroke: none;
                  }

                  polygon.regexp {
                        fill: #FFFFFF;
                        stroke: #7F7F7F;
                        stroke-width: 1;
                  }
            </style>
      </defs>
      <polygon points="9 17 1 13 1 21" />
      <polygon points="17 17 9 13 9 21" />
      <rect x="31" y="3" width="62" height="32" rx="10" />
      <rect x="29" y="1" width="62" height="32" class="terminal" rx="10" />
      <text class="terminal" x="39" y="21">return</text>
      <a xmlns:xlink="http://www.w3.org/1999/xlink" xlink:href="#EXPRESSION" xlink:title="EXPRESSION">
            <rect x="133" y="35" width="100" height="32" />
            <rect x="131" y="33" width="100" height="32" class="nonterminal" />
            <text class="nonterminal" x="141" y="53">EXPRESSION</text>
      </a>
      <rect x="273" y="3" width="24" height="32" rx="10" />
      <rect x="271" y="1" width="24" height="32" class="terminal" rx="10" />
      <text class="terminal" x="281" y="21">;</text>
      <path class="line"
            d="m17 17 h2 m0 0 h10 m62 0 h10 m20 0 h10 m0 0 h110 m-140 0 h20 m120 0 h20 m-160 0 q10 0 10 10 m140 0 q0 -10 10 -10 m-150 10 v12 m140 0 v-12 m-140 12 q0 10 10 10 m120 0 q10 0 10 -10 m-130 10 h10 m100 0 h10 m20 -32 h10 m24 0 h10 m3 0 h-3" />
      <polygon points="315 17 323 13 323 21" />
      <polygon points="315 17 307 13 307 21" />
</svg>