<?xml version="1.0" encoding="UTF-8"?>
<svg xmlns="http://www.w3.org/2000/svg" width="247" height="81">
   <defs>
      <style type="text/css">
         @namespace "http://www.w3.org/2000/svg";

         .line {
            fill: none;
            stroke: #7F7F7F;
            stroke-width: 1;
         }

         .bold-line {
            stroke: #0A0A0A;
            shape-rendering: crispEdges;
            stroke-width: 2;
         }

         .thin-line {
            stroke: #0F0F0F;
            shape-rendering: crispEdges
         }

         .filled {
            fill: #7F7F7F;
            stroke: none;
         }

         text.terminal {
            font-family: Verdana, Sans-serif;
            font-size: 12px;
            fill: #0A0A0A;
            font-weight: bold;
         }

         text.nonterminal {
            font-family: Verdana, Sans-serif;
            font-size: 12px;
            fill: #0D0D0D;
            font-weight: normal;
         }

         text.regexp {
            font-family: Verdana, Sans-serif;
            font-size: 12px;
            fill: #0F0F0F;
            font-weight: normal;
         }

         rect,
         circle,
         polygon {
            fill: #7F7F7F;
            stroke: #7F7F7F;
         }

         rect.terminal {
            fill: #FFFFFF;
            stroke: #7F7F7F;
            stroke-width: 1;
         }

         rect.nonterminal {
            fill: #FFFFFF;
            stroke: #7F7F7F;
            stroke-width: 1;
         }

         rect.text {
            fill: none;
            stroke: none;
         }

         polygon.regexp {
            fill: #FFFFFF;
            stroke: #7F7F7F;
            stroke-width: 1;
         }
      </style>
   </defs>
   <polygon points="9 17 1 13 1 21" />
   <polygon points="17 17 9 13 9 21" />
   <a xmlns:xlink="http://www.w3.org/1999/xlink" xlink:href="#SUPER_STATEMENT" xlink:title="SUPER_STATEMENT">
      <rect x="51" y="3" width="142" height="32" />
      <rect x="49" y="1" width="142" height="32" class="nonterminal" />
      <text class="nonterminal" x="59" y="21">SUPER_STATEMENT</text>
   </a>
   <a xmlns:xlink="http://www.w3.org/1999/xlink" xlink:href="#STRUCT_STATEMENT" xlink:title="STRUCT_STATEMENT">
      <rect x="51" y="47" width="148" height="32" />
      <rect x="49" y="45" width="148" height="32" class="nonterminal" />
      <text class="nonterminal" x="59" y="65">STRUCT_STATEMENT</text>
   </a>
   <path class="line"
      d="m17 17 h2 m20 0 h10 m142 0 h10 m0 0 h6 m-188 0 h20 m168 0 h20 m-208 0 q10 0 10 10 m188 0 q0 -10 10 -10 m-198 10 v24 m188 0 v-24 m-188 24 q0 10 10 10 m168 0 q10 0 10 -10 m-178 10 h10 m148 0 h10 m23 -44 h-3" />
   <polygon points="237 17 245 13 245 21" />
   <polygon points="237 17 229 13 229 21" />
</svg>