<?xml version="1.0" encoding="UTF-8"?>
<svg xmlns="http://www.w3.org/2000/svg" width="287" height="69">
      <defs>
            <style type="text/css">
                  @namespace "http://www.w3.org/2000/svg";

                  .line {
                        fill: none;
                        stroke: #7F7F7F;
                        stroke-width: 1;
                  }

                  .bold-line {
                        stroke: #0A0A0A;
                        shape-rendering: crispEdges;
                        stroke-width: 2;
                  }

                  .thin-line {
                        stroke: #0F0F0F;
                        shape-rendering: crispEdges
                  }

                  .filled {
                        fill: #7F7F7F;
                        stroke: none;
                  }

                  text.terminal {
                        font-family: Verdana, Sans-serif;
                        font-size: 12px;
                        fill: #0A0A0A;
                        font-weight: bold;
                  }

                  text.nonterminal {
                        font-family: Verdana, Sans-serif;
                        font-size: 12px;
                        fill: #0D0D0D;
                        font-weight: normal;
                  }

                  text.regexp {
                        font-family: Verdana, Sans-serif;
                        font-size: 12px;
                        fill: #0F0F0F;
                        font-weight: normal;
                  }

                  rect,
                  circle,
                  polygon {
                        fill: #7F7F7F;
                        stroke: #7F7F7F;
                  }

                  rect.terminal {
                        fill: #FFFFFF;
                        stroke: #7F7F7F;
                        stroke-width: 1;
                  }

                  rect.nonterminal {
                        fill: #FFFFFF;
                        stroke: #7F7F7F;
                        stroke-width: 1;
                  }

                  rect.text {
                        fill: none;
                        stroke: none;
                  }

                  polygon.regexp {
                        fill: #FFFFFF;
                        stroke: #7F7F7F;
                        stroke-width: 1;
                  }
            </style>
      </defs>
      <polygon points="9 33 1 29 1 37" />
      <polygon points="17 33 9 29 9 37" />
      <rect x="31" y="19" width="26" height="32" rx="10" />
      <rect x="29" y="17" width="26" height="32" class="terminal" rx="10" />
      <text class="terminal" x="39" y="37">"</text>
      <polygon points="117 35 124 19 166 19 173 35 166 51 124 51" />
      <polygon points="115 33 122 17 164 17 171 33 164 49 122 49" class="regexp" />
      <text class="regexp" x="130" y="37">[^"]</text>
      <rect x="233" y="19" width="26" height="32" rx="10" />
      <rect x="231" y="17" width="26" height="32" class="terminal" rx="10" />
      <text class="terminal" x="241" y="37">"</text>
      <path class="line"
            d="m17 33 h2 m0 0 h10 m26 0 h10 m40 0 h10 m56 0 h10 m-96 0 l20 0 m-1 0 q-9 0 -9 -10 l0 -12 q0 -10 10 -10 m76 32 l20 0 m-20 0 q10 0 10 -10 l0 -12 q0 -10 -10 -10 m-76 0 h10 m0 0 h66 m-116 32 h20 m116 0 h20 m-156 0 q10 0 10 10 m136 0 q0 -10 10 -10 m-146 10 v14 m136 0 v-14 m-136 14 q0 10 10 10 m116 0 q10 0 10 -10 m-126 10 h10 m0 0 h106 m20 -34 h10 m26 0 h10 m3 0 h-3" />
      <polygon points="277 33 285 29 285 37" />
      <polygon points="277 33 269 29 269 37" />
</svg>