<?xml version="1.0" encoding="UTF-8"?>
<svg xmlns="http://www.w3.org/2000/svg" width="267" height="301">
   <defs>
      <style type="text/css">
         @namespace "http://www.w3.org/2000/svg";

         .line {
            fill: none;
            stroke: #7F7F7F;
            stroke-width: 1;
         }

         .bold-line {
            stroke: #0A0A0A;
            shape-rendering: crispEdges;
            stroke-width: 2;
         }

         .thin-line {
            stroke: #0F0F0F;
            shape-rendering: crispEdges
         }

         .filled {
            fill: #7F7F7F;
            stroke: none;
         }

         text.terminal {
            font-family: Verdana, Sans-serif;
            font-size: 12px;
            fill: #0A0A0A;
            font-weight: bold;
         }

         text.nonterminal {
            font-family: Verdana, Sans-serif;
            font-size: 12px;
            fill: #0D0D0D;
            font-weight: normal;
         }

         text.regexp {
            font-family: Verdana, Sans-serif;
            font-size: 12px;
            fill: #0F0F0F;
            font-weight: normal;
         }

         rect,
         circle,
         polygon {
            fill: #7F7F7F;
            stroke: #7F7F7F;
         }

         rect.terminal {
            fill: #FFFFFF;
            stroke: #7F7F7F;
            stroke-width: 1;
         }

         rect.nonterminal {
            fill: #FFFFFF;
            stroke: #7F7F7F;
            stroke-width: 1;
         }

         rect.text {
            fill: none;
            stroke: none;
         }

         polygon.regexp {
            fill: #FFFFFF;
            stroke: #7F7F7F;
            stroke-width: 1;
         }
      </style>
   </defs>
   <polygon points="9 17 1 13 1 21" />
   <polygon points="17 17 9 13 9 21" />
   <a xmlns:xlink="http://www.w3.org/1999/xlink" xlink:href="#BLOCK_STATEMENT" xlink:title="BLOCK_STATEMENT">
      <rect x="51" y="3" width="142" height="32" />
      <rect x="49" y="1" width="142" height="32" class="nonterminal" />
      <text class="nonterminal" x="59" y="21">BLOCK_STATEMENT</text>
   </a>
   <a xmlns:xlink="http://www.w3.org/1999/xlink" xlink:href="#IF_STATEMENT" xlink:title="IF_STATEMENT">
      <rect x="51" y="47" width="112" height="32" />
      <rect x="49" y="45" width="112" height="32" class="nonterminal" />
      <text class="nonterminal" x="59" y="65">IF_STATEMENT</text>
   </a>
   <a xmlns:xlink="http://www.w3.org/1999/xlink" xlink:href="#WHILE_STATEMENT" xlink:title="WHILE_STATEMENT">
      <rect x="51" y="91" width="142" height="32" />
      <rect x="49" y="89" width="142" height="32" class="nonterminal" />
      <text class="nonterminal" x="59" y="109">WHILE_STATEMENT</text>
   </a>
   <a xmlns:xlink="http://www.w3.org/1999/xlink" xlink:href="#DO_WHILE_STATEMENT" xlink:title="DO_WHILE_STATEMENT">
      <rect x="51" y="135" width="168" height="32" />
      <rect x="49" y="133" width="168" height="32" class="nonterminal" />
      <text class="nonterminal" x="59" y="153">DO_WHILE_STATEMENT</text>
   </a>
   <a xmlns:xlink="http://www.w3.org/1999/xlink" xlink:href="#FOR_STATEMENT" xlink:title="FOR_STATEMENT">
      <rect x="51" y="179" width="124" height="32" />
      <rect x="49" y="177" width="124" height="32" class="nonterminal" />
      <text class="nonterminal" x="59" y="197">FOR_STATEMENT</text>
   </a>
   <a xmlns:xlink="http://www.w3.org/1999/xlink" xlink:href="#RETURN_STATEMENT" xlink:title="RETURN_STATEMENT">
      <rect x="51" y="223" width="150" height="32" />
      <rect x="49" y="221" width="150" height="32" class="nonterminal" />
      <text class="nonterminal" x="59" y="241">RETURN_STATEMENT</text>
   </a>
   <a xmlns:xlink="http://www.w3.org/1999/xlink" xlink:href="#SWITCH_STATEMENT" xlink:title="SWITCH_STATEMENT">
      <rect x="51" y="267" width="152" height="32" />
      <rect x="49" y="265" width="152" height="32" class="nonterminal" />
      <text class="nonterminal" x="59" y="285">SWITCH_STATEMENT</text>
   </a>
   <path class="line"
      d="m17 17 h2 m20 0 h10 m142 0 h10 m0 0 h26 m-208 0 h20 m188 0 h20 m-228 0 q10 0 10 10 m208 0 q0 -10 10 -10 m-218 10 v24 m208 0 v-24 m-208 24 q0 10 10 10 m188 0 q10 0 10 -10 m-198 10 h10 m112 0 h10 m0 0 h56 m-198 -10 v20 m208 0 v-20 m-208 20 v24 m208 0 v-24 m-208 24 q0 10 10 10 m188 0 q10 0 10 -10 m-198 10 h10 m142 0 h10 m0 0 h26 m-198 -10 v20 m208 0 v-20 m-208 20 v24 m208 0 v-24 m-208 24 q0 10 10 10 m188 0 q10 0 10 -10 m-198 10 h10 m168 0 h10 m-198 -10 v20 m208 0 v-20 m-208 20 v24 m208 0 v-24 m-208 24 q0 10 10 10 m188 0 q10 0 10 -10 m-198 10 h10 m124 0 h10 m0 0 h44 m-198 -10 v20 m208 0 v-20 m-208 20 v24 m208 0 v-24 m-208 24 q0 10 10 10 m188 0 q10 0 10 -10 m-198 10 h10 m150 0 h10 m0 0 h18 m-198 -10 v20 m208 0 v-20 m-208 20 v24 m208 0 v-24 m-208 24 q0 10 10 10 m188 0 q10 0 10 -10 m-198 10 h10 m152 0 h10 m0 0 h16 m23 -264 h-3" />
   <polygon points="257 17 265 13 265 21" />
   <polygon points="257 17 249 13 249 21" />
</svg>