<?xml version="1.0" encoding="UTF-8"?>
<svg xmlns="http://www.w3.org/2000/svg" width="841" height="103">
      <defs>
            <style type="text/css">
                  @namespace "http://www.w3.org/2000/svg";

                  .line {
                        fill: none;
                        stroke: #7F7F7F;
                        stroke-width: 1;
                  }

                  .bold-line {
                        stroke: #0A0A0A;
                        shape-rendering: crispEdges;
                        stroke-width: 2;
                  }

                  .thin-line {
                        stroke: #0F0F0F;
                        shape-rendering: crispEdges
                  }

                  .filled {
                        fill: #7F7F7F;
                        stroke: none;
                  }

                  text.terminal {
                        font-family: Verdana, Sans-serif;
                        font-size: 12px;
                        fill: #0A0A0A;
                        font-weight: bold;
                  }

                  text.nonterminal {
                        font-family: Verdana, Sans-serif;
                        font-size: 12px;
                        fill: #0D0D0D;
                        font-weight: normal;
                  }

                  text.regexp {
                        font-family: Verdana, Sans-serif;
                        font-size: 12px;
                        fill: #0F0F0F;
                        font-weight: normal;
                  }

                  rect,
                  circle,
                  polygon {
                        fill: #7F7F7F;
                        stroke: #7F7F7F;
                  }

                  rect.terminal {
                        fill: #FFFFFF;
                        stroke: #7F7F7F;
                        stroke-width: 1;
                  }

                  rect.nonterminal {
                        fill: #FFFFFF;
                        stroke: #7F7F7F;
                        stroke-width: 1;
                  }

                  rect.text {
                        fill: none;
                        stroke: none;
                  }

                  polygon.regexp {
                        fill: #FFFFFF;
                        stroke: #7F7F7F;
                        stroke-width: 1;
                  }
            </style>
      </defs>
      <polygon points="9 51 1 47 1 55" />
      <polygon points="17 51 9 47 9 55" />
      <rect x="31" y="37" width="64" height="32" rx="10" />
      <rect x="29" y="35" width="64" height="32" class="terminal" rx="10" />
      <text class="terminal" x="39" y="55">switch</text>
      <rect x="115" y="37" width="26" height="32" rx="10" />
      <rect x="113" y="35" width="26" height="32" class="terminal" rx="10" />
      <text class="terminal" x="123" y="55">(</text>
      <a xmlns:xlink="http://www.w3.org/1999/xlink" xlink:href="#EXPRESSION" xlink:title="EXPRESSION">
            <rect x="161" y="37" width="100" height="32" />
            <rect x="159" y="35" width="100" height="32" class="nonterminal" />
            <text class="nonterminal" x="169" y="55">EXPRESSION</text>
      </a>
      <rect x="281" y="37" width="26" height="32" rx="10" />
      <rect x="279" y="35" width="26" height="32" class="terminal" rx="10" />
      <text class="terminal" x="289" y="55">)</text>
      <rect x="327" y="37" width="28" height="32" rx="10" />
      <rect x="325" y="35" width="28" height="32" class="terminal" rx="10" />
      <text class="terminal" x="335" y="55">{</text>
      <a xmlns:xlink="http://www.w3.org/1999/xlink" xlink:href="#CASE_STATEMENT" xlink:title="CASE_STATEMENT">
            <rect x="395" y="3" width="134" height="32" />
            <rect x="393" y="1" width="134" height="32" class="nonterminal" />
            <text class="nonterminal" x="403" y="21">CASE_STATEMENT</text>
      </a>
      <a xmlns:xlink="http://www.w3.org/1999/xlink" xlink:href="#DEFAULT_STATEMENT" xlink:title="DEFAULT_STATEMENT">
            <rect x="589" y="69" width="156" height="32" />
            <rect x="587" y="67" width="156" height="32" class="nonterminal" />
            <text class="nonterminal" x="597" y="87">DEFAULT_STATEMENT</text>
      </a>
      <rect x="785" y="37" width="28" height="32" rx="10" />
      <rect x="783" y="35" width="28" height="32" class="terminal" rx="10" />
      <text class="terminal" x="793" y="55">}</text>
      <path class="line"
            d="m17 51 h2 m0 0 h10 m64 0 h10 m0 0 h10 m26 0 h10 m0 0 h10 m100 0 h10 m0 0 h10 m26 0 h10 m0 0 h10 m28 0 h10 m20 0 h10 m0 0 h144 m-174 0 l20 0 m-1 0 q-9 0 -9 -10 l0 -14 q0 -10 10 -10 m154 34 l20 0 m-20 0 q10 0 10 -10 l0 -14 q0 -10 -10 -10 m-154 0 h10 m134 0 h10 m40 34 h10 m0 0 h166 m-196 0 h20 m176 0 h20 m-216 0 q10 0 10 10 m196 0 q0 -10 10 -10 m-206 10 v12 m196 0 v-12 m-196 12 q0 10 10 10 m176 0 q10 0 10 -10 m-186 10 h10 m156 0 h10 m20 -32 h10 m28 0 h10 m3 0 h-3" />
      <polygon points="831 51 839 47 839 55" />
      <polygon points="831 51 823 47 823 55" />
</svg>